<?xml version="1.0" standalone="no"?>
<svg xmlns="http://www.w3.org/2000/svg" version="1.1" width="1400" height="456" viewBox="0 0 1400 456">
<style>
  text { font-family: -apple-system, "SF Mono", Menlo, monospace; font-size: 11px; fill: #0f0e0d; pointer-events: none; }
  rect { stroke: #1a1917; stroke-width: 0.5; cursor: pointer; }
  rect:hover { stroke: #f0ede8; stroke-width: 1.5; }
  .title { font-size: 16px; font-weight: 700; fill: #d4a844; font-family: -apple-system, "SF Mono", Menlo, monospace; }
  .subtitle { font-size: 11px; fill: #a09890; }
  .total { font-size: 11px; fill: #6a6460; }
  .label { fill: #1a1917; }
  .label-dark { fill: #f0ede8; }
  #info { font-size: 12px; fill: #f0ede8; font-family: -apple-system, "SF Mono", Menlo, monospace; }
</style>
<rect x="0" y="0" width="100%" height="100%" fill="#0f0e0d"/>
<text class="title" x="14" y="22">/tmp/cpu.pprof</text><text class="subtitle" x="14" y="40">2026-05-15 14:59 UTC · 121 frames · cpu/nanoseconds sample type</text><text class="total" x="1386" y="22" text-anchor="end">total: 1.85s</text><text id="info" x="14" y="444">hover a frame for details</text><g class="frame" data-label="runtime.main    1.22s (65.9%)"><rect x="14.00" y="52" width="904.78" height="17" fill="rgb(218,159,113)"/><text class="label" x="17.00" y="65">runtime.main</text></g><g class="frame" data-label="main.main    1.22s (65.9%)"><rect x="14.00" y="70" width="904.78" height="17" fill="rgb(228,145,117)"/><text class="label" x="17.00" y="83">main.main</text></g><g class="frame" data-label="main.chain    1.22s (65.9%)"><rect x="14.00" y="88" width="904.78" height="17" fill="rgb(237,56,53)"/><text class="label label-dark" x="17.00" y="101">main.chain</text></g><g class="frame" data-label="main.chain    1.12s (60.5%)"><rect x="14.00" y="106" width="830.62" height="17" fill="rgb(237,56,53)"/><text class="label label-dark" x="17.00" y="119">main.chain</text></g><g class="frame" data-label="main.chain    1.00s (54.1%)"><rect x="14.00" y="124" width="741.62" height="17" fill="rgb(237,56,53)"/><text class="label label-dark" x="17.00" y="137">main.chain</text></g><g class="frame" data-label="main.chain    920.0ms (49.7%)"><rect x="14.00" y="142" width="682.29" height="17" fill="rgb(237,56,53)"/><text class="label label-dark" x="17.00" y="155">main.chain</text></g><g class="frame" data-label="main.chain    790.0ms (42.7%)"><rect x="14.00" y="160" width="585.88" height="17" fill="rgb(237,56,53)"/><text class="label label-dark" x="17.00" y="173">main.chain</text></g><g class="frame" data-label="main.chain    660.0ms (35.7%)"><rect x="14.00" y="178" width="489.47" height="17" fill="rgb(237,56,53)"/><text class="label label-dark" x="17.00" y="191">main.chain</text></g><g class="frame" data-label="main.chain    550.0ms (29.7%)"><rect x="14.00" y="196" width="407.89" height="17" fill="rgb(237,56,53)"/><text class="label label-dark" x="17.00" y="209">main.chain</text></g><g class="frame" data-label="main.chain    440.0ms (23.8%)"><rect x="14.00" y="214" width="326.31" height="17" fill="rgb(237,56,53)"/><text class="label label-dark" x="17.00" y="227">main.chain</text></g><g class="frame" data-label="main.chain    340.0ms (18.4%)"><rect x="14.00" y="232" width="252.15" height="17" fill="rgb(237,56,53)"/><text class="label label-dark" x="17.00" y="245">main.chain</text></g><g class="frame" data-label="main.chain    190.0ms (10.3%)"><rect x="14.00" y="250" width="140.91" height="17" fill="rgb(237,56,53)"/><text class="label label-dark" x="17.00" y="263">main.chain</text></g><g class="frame" data-label="main.slowSum    180.0ms (9.7%)"><rect x="14.00" y="268" width="133.49" height="17" fill="rgb(240,152,101)"/><text class="label" x="17.00" y="281">main.slowSum</text></g><g class="frame" data-label="math/rand.Float64    170.0ms (9.2%)"><rect x="14.00" y="286" width="126.08" height="17" fill="rgb(238,174,83)"/><text class="label" x="17.00" y="299">math/rand.Float64</text></g><g class="frame" data-label="math/rand.(*Rand).Float64    120.0ms (6.5%)"><rect x="14.00" y="304" width="88.99" height="17" fill="rgb(233,155,118)"/><text class="label" x="17.00" y="317">math/rand.(*…</text></g><g class="frame" data-label="math/rand.(*Rand).Int63    120.0ms (6.5%)"><rect x="14.00" y="322" width="88.99" height="17" fill="rgb(235,121,49)"/><text class="label" x="17.00" y="335">math/rand.(*…</text></g><g class="frame" data-label="math/rand.(*runtimeSource).Int63    100.0ms (5.4%)"><rect x="14.00" y="340" width="74.16" height="17" fill="rgb(230,118,80)"/><text class="label" x="17.00" y="353">math/rand.…</text></g><g class="frame" data-label="runtime.rand    90.0ms (4.9%)"><rect x="14.00" y="358" width="66.75" height="17" fill="rgb(208,115,86)"/><text class="label" x="17.00" y="371">runtime.r…</text></g><g class="frame" data-label="internal/chacha8rand.(*State).Next    50.0ms (2.7%)"><rect x="14.00" y="376" width="37.08" height="17" fill="rgb(221,175,125)"/><text class="label" x="17.00" y="389">inte…</text></g><g class="frame" data-label="math/rand.globalRand    50.0ms (2.7%)"><rect x="102.99" y="304" width="37.08" height="17" fill="rgb(230,137,111)"/><text class="label" x="105.99" y="317">math…</text></g><g class="frame" data-label="sync/atomic.(*Pointer[go.shape.struct { math/rand.src math/rand.Source; math/rand.s64 math/rand.Source64; math/rand.readVal int64; math/rand.readPos int8 }]).Load    20.0ms (1.1%)"><rect x="102.99" y="322" width="14.83" height="17" fill="rgb(236,206,95)"/></g><g class="frame" data-label="main.slowSum    150.0ms (8.1%)"><rect x="154.91" y="250" width="111.24" height="17" fill="rgb(240,152,101)"/><text class="label" x="157.91" y="263">main.slowSum</text></g><g class="frame" data-label="math/rand.Float64    140.0ms (7.6%)"><rect x="154.91" y="268" width="103.83" height="17" fill="rgb(238,174,83)"/><text class="label" x="157.91" y="281">math/rand.Floa…</text></g><g class="frame" data-label="math/rand.(*Rand).Float64    100.0ms (5.4%)"><rect x="154.91" y="286" width="74.16" height="17" fill="rgb(233,155,118)"/><text class="label" x="157.91" y="299">math/rand.…</text></g><g class="frame" data-label="math/rand.(*Rand).Int63    90.0ms (4.9%)"><rect x="154.91" y="304" width="66.75" height="17" fill="rgb(235,121,49)"/><text class="label" x="157.91" y="317">math/rand…</text></g><g class="frame" data-label="math/rand.(*runtimeSource).Int63    90.0ms (4.9%)"><rect x="154.91" y="322" width="66.75" height="17" fill="rgb(230,118,80)"/><text class="label" x="157.91" y="335">math/rand…</text></g><g class="frame" data-label="runtime.rand    70.0ms (3.8%)"><rect x="154.91" y="340" width="51.91" height="17" fill="rgb(208,115,86)"/><text class="label" x="157.91" y="353">runtim…</text></g><g class="frame" data-label="internal/chacha8rand.(*State).Next    60.0ms (3.2%)"><rect x="154.91" y="358" width="44.50" height="17" fill="rgb(221,175,125)"/><text class="label" x="157.91" y="371">inter…</text></g><g class="frame" data-label="math/rand.globalRand    30.0ms (1.6%)"><rect x="229.07" y="286" width="22.25" height="17" fill="rgb(230,137,111)"/></g><g class="frame" data-label="main.slowSum    100.0ms (5.4%)"><rect x="266.15" y="232" width="74.16" height="17" fill="rgb(240,152,101)"/><text class="label" x="269.15" y="245">main.slowS…</text></g><g class="frame" data-label="math/rand.Float64    90.0ms (4.9%)"><rect x="266.15" y="250" width="66.75" height="17" fill="rgb(238,174,83)"/><text class="label" x="269.15" y="263">math/rand…</text></g><g class="frame" data-label="math/rand.(*Rand).Float64    50.0ms (2.7%)"><rect x="266.15" y="268" width="37.08" height="17" fill="rgb(233,155,118)"/><text class="label" x="269.15" y="281">math…</text></g><g class="frame" data-label="math/rand.(*Rand).Int63    50.0ms (2.7%)"><rect x="266.15" y="286" width="37.08" height="17" fill="rgb(235,121,49)"/><text class="label" x="269.15" y="299">math…</text></g><g class="frame" data-label="math/rand.(*runtimeSource).Int63    40.0ms (2.2%)"><rect x="266.15" y="304" width="29.66" height="17" fill="rgb(230,118,80)"/><text class="label" x="269.15" y="317">mat…</text></g><g class="frame" data-label="runtime.rand    40.0ms (2.2%)"><rect x="266.15" y="322" width="29.66" height="17" fill="rgb(208,115,86)"/><text class="label" x="269.15" y="335">run…</text></g><g class="frame" data-label="internal/chacha8rand.(*State).Next    10.0ms (0.5%)"><rect x="266.15" y="340" width="7.42" height="17" fill="rgb(221,175,125)"/></g><g class="frame" data-label="math/rand.globalRand    30.0ms (1.6%)"><rect x="303.23" y="268" width="22.25" height="17" fill="rgb(230,137,111)"/></g><g class="frame" data-label="main.slowSum    100.0ms (5.4%)"><rect x="340.31" y="214" width="74.16" height="17" fill="rgb(240,152,101)"/><text class="label" x="343.31" y="227">main.slowS…</text></g><g class="frame" data-label="math/rand.Float64    100.0ms (5.4%)"><rect x="340.31" y="232" width="74.16" height="17" fill="rgb(238,174,83)"/><text class="label" x="343.31" y="245">math/rand.…</text></g><g class="frame" data-label="math/rand.(*Rand).Float64    60.0ms (3.2%)"><rect x="340.31" y="250" width="44.50" height="17" fill="rgb(233,155,118)"/><text class="label" x="343.31" y="263">math/…</text></g><g class="frame" data-label="math/rand.(*Rand).Int63    60.0ms (3.2%)"><rect x="340.31" y="268" width="44.50" height="17" fill="rgb(235,121,49)"/><text class="label" x="343.31" y="281">math/…</text></g><g class="frame" data-label="math/rand.(*runtimeSource).Int63    50.0ms (2.7%)"><rect x="340.31" y="286" width="37.08" height="17" fill="rgb(230,118,80)"/><text class="label" x="343.31" y="299">math…</text></g><g class="frame" data-label="runtime.rand    40.0ms (2.2%)"><rect x="340.31" y="304" width="29.66" height="17" fill="rgb(208,115,86)"/><text class="label" x="343.31" y="317">run…</text></g><g class="frame" data-label="internal/chacha8rand.(*State).Next    10.0ms (0.5%)"><rect x="340.31" y="322" width="7.42" height="17" fill="rgb(221,175,125)"/></g><g class="frame" data-label="math/rand.globalRand    20.0ms (1.1%)"><rect x="384.81" y="250" width="14.83" height="17" fill="rgb(230,137,111)"/></g><g class="frame" data-label="main.slowSum    100.0ms (5.4%)"><rect x="421.89" y="196" width="74.16" height="17" fill="rgb(240,152,101)"/><text class="label" x="424.89" y="209">main.slowS…</text></g><g class="frame" data-label="math/rand.Float64    100.0ms (5.4%)"><rect x="421.89" y="214" width="74.16" height="17" fill="rgb(238,174,83)"/><text class="label" x="424.89" y="227">math/rand.…</text></g><g class="frame" data-label="math/rand.(*Rand).Float64    70.0ms (3.8%)"><rect x="421.89" y="232" width="51.91" height="17" fill="rgb(233,155,118)"/><text class="label" x="424.89" y="245">math/r…</text></g><g class="frame" data-label="math/rand.(*Rand).Int63    70.0ms (3.8%)"><rect x="421.89" y="250" width="51.91" height="17" fill="rgb(235,121,49)"/><text class="label" x="424.89" y="263">math/r…</text></g><g class="frame" data-label="math/rand.(*runtimeSource).Int63    70.0ms (3.8%)"><rect x="421.89" y="268" width="51.91" height="17" fill="rgb(230,118,80)"/><text class="label" x="424.89" y="281">math/r…</text></g><g class="frame" data-label="runtime.rand    50.0ms (2.7%)"><rect x="421.89" y="286" width="37.08" height="17" fill="rgb(208,115,86)"/><text class="label" x="424.89" y="299">runt…</text></g><g class="frame" data-label="internal/chacha8rand.(*State).Next    20.0ms (1.1%)"><rect x="421.89" y="304" width="14.83" height="17" fill="rgb(221,175,125)"/></g><g class="frame" data-label="internal/chacha8rand.(*State).Refill    10.0ms (0.5%)"><rect x="436.72" y="304" width="7.42" height="17" fill="rgb(228,158,117)"/></g><g class="frame" data-label="math/rand.globalRand    20.0ms (1.1%)"><rect x="473.81" y="232" width="14.83" height="17" fill="rgb(230,137,111)"/></g><g class="frame" data-label="main.slowSum    120.0ms (6.5%)"><rect x="503.47" y="178" width="88.99" height="17" fill="rgb(240,152,101)"/><text class="label" x="506.47" y="191">main.slowSum</text></g><g class="frame" data-label="math/rand.Float64    110.0ms (5.9%)"><rect x="503.47" y="196" width="81.58" height="17" fill="rgb(238,174,83)"/><text class="label" x="506.47" y="209">math/rand.F…</text></g><g class="frame" data-label="math/rand.(*Rand).Float64    70.0ms (3.8%)"><rect x="503.47" y="214" width="51.91" height="17" fill="rgb(233,155,118)"/><text class="label" x="506.47" y="227">math/r…</text></g><g class="frame" data-label="math/rand.(*Rand).Int63    70.0ms (3.8%)"><rect x="503.47" y="232" width="51.91" height="17" fill="rgb(235,121,49)"/><text class="label" x="506.47" y="245">math/r…</text></g><g class="frame" data-label="math/rand.(*runtimeSource).Int63    70.0ms (3.8%)"><rect x="503.47" y="250" width="51.91" height="17" fill="rgb(230,118,80)"/><text class="label" x="506.47" y="263">math/r…</text></g><g class="frame" data-label="runtime.rand    50.0ms (2.7%)"><rect x="503.47" y="268" width="37.08" height="17" fill="rgb(208,115,86)"/><text class="label" x="506.47" y="281">runt…</text></g><g class="frame" data-label="internal/chacha8rand.(*State).Next    30.0ms (1.6%)"><rect x="503.47" y="286" width="22.25" height="17" fill="rgb(221,175,125)"/></g><g class="frame" data-label="internal/chacha8rand.(*State).Refill    10.0ms (0.5%)"><rect x="525.72" y="286" width="7.42" height="17" fill="rgb(228,158,117)"/></g><g class="frame" data-label="math/rand.globalRand    30.0ms (1.6%)"><rect x="555.38" y="214" width="22.25" height="17" fill="rgb(230,137,111)"/></g><g class="frame" data-label="sync/atomic.(*Pointer[go.shape.struct { math/rand.src math/rand.Source; math/rand.s64 math/rand.Source64; math/rand.readVal int64; math/rand.readPos int8 }]).Load    10.0ms (0.5%)"><rect x="555.38" y="232" width="7.42" height="17" fill="rgb(236,206,95)"/></g><g class="frame" data-label="main.slowSum    130.0ms (7.0%)"><rect x="599.88" y="160" width="96.41" height="17" fill="rgb(240,152,101)"/><text class="label" x="602.88" y="173">main.slowSum</text></g><g class="frame" data-label="math/rand.Float64    130.0ms (7.0%)"><rect x="599.88" y="178" width="96.41" height="17" fill="rgb(238,174,83)"/><text class="label" x="602.88" y="191">math/rand.Flo…</text></g><g class="frame" data-label="math/rand.(*Rand).Float64    100.0ms (5.4%)"><rect x="599.88" y="196" width="74.16" height="17" fill="rgb(233,155,118)"/><text class="label" x="602.88" y="209">math/rand.…</text></g><g class="frame" data-label="math/rand.(*Rand).Int63    100.0ms (5.4%)"><rect x="599.88" y="214" width="74.16" height="17" fill="rgb(235,121,49)"/><text class="label" x="602.88" y="227">math/rand.…</text></g><g class="frame" data-label="math/rand.(*runtimeSource).Int63    100.0ms (5.4%)"><rect x="599.88" y="232" width="74.16" height="17" fill="rgb(230,118,80)"/><text class="label" x="602.88" y="245">math/rand.…</text></g><g class="frame" data-label="runtime.rand    70.0ms (3.8%)"><rect x="599.88" y="250" width="51.91" height="17" fill="rgb(208,115,86)"/><text class="label" x="602.88" y="263">runtim…</text></g><g class="frame" data-label="internal/chacha8rand.(*State).Next    30.0ms (1.6%)"><rect x="599.88" y="268" width="22.25" height="17" fill="rgb(221,175,125)"/></g><g class="frame" data-label="internal/chacha8rand.(*State).Refill    10.0ms (0.5%)"><rect x="622.13" y="268" width="7.42" height="17" fill="rgb(228,158,117)"/></g><g class="frame" data-label="internal/chacha8rand.block    10.0ms (0.5%)"><rect x="622.13" y="286" width="7.42" height="17" fill="rgb(227,160,124)"/></g><g class="frame" data-label="math/rand.globalRand    30.0ms (1.6%)"><rect x="674.04" y="196" width="22.25" height="17" fill="rgb(230,137,111)"/></g><g class="frame" data-label="runtime.asyncPreempt    10.0ms (0.5%)"><rect x="674.04" y="214" width="7.42" height="17" fill="rgb(239,143,101)"/></g><g class="frame" data-label="main.slowSum    80.0ms (4.3%)"><rect x="696.29" y="142" width="59.33" height="17" fill="rgb(240,152,101)"/><text class="label" x="699.29" y="155">main.slo…</text></g><g class="frame" data-label="math/rand.Float64    80.0ms (4.3%)"><rect x="696.29" y="160" width="59.33" height="17" fill="rgb(238,174,83)"/><text class="label" x="699.29" y="173">math/ran…</text></g><g class="frame" data-label="math/rand.(*Rand).Float64    40.0ms (2.2%)"><rect x="696.29" y="178" width="29.66" height="17" fill="rgb(233,155,118)"/><text class="label" x="699.29" y="191">mat…</text></g><g class="frame" data-label="math/rand.(*Rand).Int63    40.0ms (2.2%)"><rect x="696.29" y="196" width="29.66" height="17" fill="rgb(235,121,49)"/><text class="label" x="699.29" y="209">mat…</text></g><g class="frame" data-label="math/rand.(*runtimeSource).Int63    40.0ms (2.2%)"><rect x="696.29" y="214" width="29.66" height="17" fill="rgb(230,118,80)"/><text class="label" x="699.29" y="227">mat…</text></g><g class="frame" data-label="runtime.rand    40.0ms (2.2%)"><rect x="696.29" y="232" width="29.66" height="17" fill="rgb(208,115,86)"/><text class="label" x="699.29" y="245">run…</text></g><g class="frame" data-label="internal/chacha8rand.(*State).Next    20.0ms (1.1%)"><rect x="696.29" y="250" width="14.83" height="17" fill="rgb(221,175,125)"/></g><g class="frame" data-label="math/rand.globalRand    30.0ms (1.6%)"><rect x="725.96" y="178" width="22.25" height="17" fill="rgb(230,137,111)"/></g><g class="frame" data-label="main.slowSum    110.0ms (5.9%)"><rect x="755.62" y="124" width="81.58" height="17" fill="rgb(240,152,101)"/><text class="label" x="758.62" y="137">main.slowSum</text></g><g class="frame" data-label="math/rand.Float64    100.0ms (5.4%)"><rect x="755.62" y="142" width="74.16" height="17" fill="rgb(238,174,83)"/><text class="label" x="758.62" y="155">math/rand.…</text></g><g class="frame" data-label="math/rand.(*Rand).Float64    60.0ms (3.2%)"><rect x="755.62" y="160" width="44.50" height="17" fill="rgb(233,155,118)"/><text class="label" x="758.62" y="173">math/…</text></g><g class="frame" data-label="math/rand.(*Rand).Int63    60.0ms (3.2%)"><rect x="755.62" y="178" width="44.50" height="17" fill="rgb(235,121,49)"/><text class="label" x="758.62" y="191">math/…</text></g><g class="frame" data-label="math/rand.(*runtimeSource).Int63    30.0ms (1.6%)"><rect x="755.62" y="196" width="22.25" height="17" fill="rgb(230,118,80)"/></g><g class="frame" data-label="runtime.rand    30.0ms (1.6%)"><rect x="755.62" y="214" width="22.25" height="17" fill="rgb(208,115,86)"/></g><g class="frame" data-label="internal/chacha8rand.(*State).Refill    20.0ms (1.1%)"><rect x="755.62" y="232" width="14.83" height="17" fill="rgb(228,158,117)"/></g><g class="frame" data-label="internal/chacha8rand.block    10.0ms (0.5%)"><rect x="755.62" y="250" width="7.42" height="17" fill="rgb(227,160,124)"/></g><g class="frame" data-label="internal/chacha8rand.(*State).Next    10.0ms (0.5%)"><rect x="770.45" y="232" width="7.42" height="17" fill="rgb(221,175,125)"/></g><g class="frame" data-label="math/rand.globalRand    30.0ms (1.6%)"><rect x="800.12" y="160" width="22.25" height="17" fill="rgb(230,137,111)"/></g><g class="frame" data-label="main.slowSum    100.0ms (5.4%)"><rect x="844.62" y="106" width="74.16" height="17" fill="rgb(240,152,101)"/><text class="label" x="847.62" y="119">main.slowS…</text></g><g class="frame" data-label="math/rand.Float64    100.0ms (5.4%)"><rect x="844.62" y="124" width="74.16" height="17" fill="rgb(238,174,83)"/><text class="label" x="847.62" y="137">math/rand.…</text></g><g class="frame" data-label="math/rand.(*Rand).Float64    100.0ms (5.4%)"><rect x="844.62" y="142" width="74.16" height="17" fill="rgb(233,155,118)"/><text class="label" x="847.62" y="155">math/rand.…</text></g><g class="frame" data-label="math/rand.(*Rand).Int63    100.0ms (5.4%)"><rect x="844.62" y="160" width="74.16" height="17" fill="rgb(235,121,49)"/><text class="label" x="847.62" y="173">math/rand.…</text></g><g class="frame" data-label="math/rand.(*runtimeSource).Int63    90.0ms (4.9%)"><rect x="844.62" y="178" width="66.75" height="17" fill="rgb(230,118,80)"/><text class="label" x="847.62" y="191">math/rand…</text></g><g class="frame" data-label="runtime.rand    70.0ms (3.8%)"><rect x="844.62" y="196" width="51.91" height="17" fill="rgb(208,115,86)"/><text class="label" x="847.62" y="209">runtim…</text></g><g class="frame" data-label="internal/chacha8rand.(*State).Next    30.0ms (1.6%)"><rect x="844.62" y="214" width="22.25" height="17" fill="rgb(221,175,125)"/></g><g class="frame" data-label="internal/chacha8rand.block    560.0ms (30.3%)"><rect x="918.78" y="52" width="415.31" height="17" fill="rgb(227,160,124)"/><text class="label" x="921.78" y="65">internal/chacha8rand.block</text></g><g class="frame" data-label="runtime.morestack    60.0ms (3.2%)"><rect x="1334.09" y="52" width="44.50" height="17" fill="rgb(212,180,103)"/><text class="label" x="1337.09" y="65">runti…</text></g><g class="frame" data-label="runtime.newstack    60.0ms (3.2%)"><rect x="1334.09" y="70" width="44.50" height="17" fill="rgb(229,189,122)"/><text class="label" x="1337.09" y="83">runti…</text></g><g class="frame" data-label="runtime.gopreempt_m    60.0ms (3.2%)"><rect x="1334.09" y="88" width="44.50" height="17" fill="rgb(226,146,99)"/><text class="label" x="1337.09" y="101">runti…</text></g><g class="frame" data-label="runtime.goschedImpl    60.0ms (3.2%)"><rect x="1334.09" y="106" width="44.50" height="17" fill="rgb(221,117,105)"/><text class="label" x="1337.09" y="119">runti…</text></g><g class="frame" data-label="runtime.wakep    60.0ms (3.2%)"><rect x="1334.09" y="124" width="44.50" height="17" fill="rgb(235,132,90)"/><text class="label" x="1337.09" y="137">runti…</text></g><g class="frame" data-label="runtime.startm    60.0ms (3.2%)"><rect x="1334.09" y="142" width="44.50" height="17" fill="rgb(220,141,80)"/><text class="label" x="1337.09" y="155">runti…</text></g><g class="frame" data-label="runtime.notewakeup    50.0ms (2.7%)"><rect x="1334.09" y="160" width="37.08" height="17" fill="rgb(223,194,92)"/><text class="label" x="1337.09" y="173">runt…</text></g><g class="frame" data-label="runtime.semawakeup    50.0ms (2.7%)"><rect x="1334.09" y="178" width="37.08" height="17" fill="rgb(212,131,83)"/><text class="label" x="1337.09" y="191">runt…</text></g><g class="frame" data-label="runtime.pthread_cond_signal    40.0ms (2.2%)"><rect x="1334.09" y="196" width="29.66" height="17" fill="rgb(238,141,103)"/><text class="label" x="1337.09" y="209">run…</text></g><g class="frame" data-label="runtime.pthread_mutex_lock    10.0ms (0.5%)"><rect x="1363.75" y="196" width="7.42" height="17" fill="rgb(223,133,128)"/></g><g class="frame" data-label="runtime.mcall    10.0ms (0.5%)"><rect x="1378.58" y="52" width="7.42" height="17" fill="rgb(209,145,96)"/></g><g class="frame" data-label="runtime.park_m    10.0ms (0.5%)"><rect x="1378.58" y="70" width="7.42" height="17" fill="rgb(225,67,65)"/></g><g class="frame" data-label="runtime.schedule    10.0ms (0.5%)"><rect x="1378.58" y="88" width="7.42" height="17" fill="rgb(225,156,116)"/></g><g class="frame" data-label="runtime.findRunnable    10.0ms (0.5%)"><rect x="1378.58" y="106" width="7.42" height="17" fill="rgb(222,115,57)"/></g><g class="frame" data-label="runtime.stopm    10.0ms (0.5%)"><rect x="1378.58" y="124" width="7.42" height="17" fill="rgb(218,114,98)"/></g><g class="frame" data-label="runtime.mPark    10.0ms (0.5%)"><rect x="1378.58" y="142" width="7.42" height="17" fill="rgb(214,188,81)"/></g><g class="frame" data-label="runtime.notesleep    10.0ms (0.5%)"><rect x="1378.58" y="160" width="7.42" height="17" fill="rgb(228,149,103)"/></g><g class="frame" data-label="runtime.semasleep    10.0ms (0.5%)"><rect x="1378.58" y="178" width="7.42" height="17" fill="rgb(218,96,77)"/></g><g class="frame" data-label="runtime.pthread_cond_wait    10.0ms (0.5%)"><rect x="1378.58" y="196" width="7.42" height="17" fill="rgb(206,154,73)"/></g>
<script><![CDATA[
  document.querySelectorAll('g.frame').forEach(function(g){
    g.addEventListener('mousemove', function(){
      var info = document.getElementById('info');
      info.textContent = g.getAttribute('data-label');
    });
  });
]]></script>
</svg>
